<svg version="1.1" id="svg-draw" xmlns="http://www.w3.org/2000/svg" xmlns:xlink="http://www.w3.org/1999/xlink" x="0px" y="0px" width="100%" height="100%" viewBox="0 0 200 320" xml:space="preserve">
	<g id="svg-content">
		<g transform="matrix(0.70,0,0,0.70,30,40)">

			<g>
				<path fill="#90C419" d="M71.3,28.4c31.6,0,57.2,25.6,57.2,57.2H71V28.4H71.3z"/>
				<g>
					<path fill="#2BABE6" d="M57.4,142.8V200h-0.2C25.6,200,0,174.4,0,142.8H57.4z"/>
					<rect y="85.6" fill="#007FC5" width="57.4" height="57.2"/>
					<path fill="#043A54" d="M57.4,28.4v57.2H0C0,54,25.6,28.4,57.2,28.4H57.4z"/>
					<path fill="#FFE600" d="M128.5,142.8V200h-0.2C96.7,200,71,174.4,71,142.8H128.5z"/>
					<rect x="71" y="85.6" fill="#32AE35" width="57.4" height="57.2"/>
					<path fill="#FFB800" d="M200,142.8c0,31.6-25.6,57.2-57.2,57.2h-0.2v-57.2H200z"/>
					<rect x="142.6" y="85.6" fill="#F35E17" width="57.4" height="57.2"/>
					<path fill="#E80022" d="M142.8,28.4c31.6,0,57.2,25.6,57.2,57.2h-57.4V28.4H142.8z"/>
				</g>
			</g>

		</g>
	</g>
</svg>